<svg width="87" height="24" viewBox="0 0 87 24" fill="none" xmlns="http://www.w3.org/2000/svg">
<path d="M7.11649 12.0543C9.34695 8.75103 14.1666 1.70027 14.4615 2.00985C14.7376 2.29958 13.8248 5.91637 13.2876 7.93503C13.1119 8.5952 13.6285 9.24032 14.3109 9.20622L20.0195 8.92092C20.4276 8.90053 20.6865 9.35171 20.463 9.69378L14.1043 19.4262C13.5261 20.3111 12.1491 19.8106 12.2741 18.7609L12.7818 14.4983C12.8554 13.88 12.3522 13.3455 11.7306 13.3817L8.00402 13.599C7.18001 13.647 6.65459 12.7384 7.11649 12.0543Z" fill="#0D9965" stroke="#0D9965"/>
<path d="M5.13778 18V4.90909H10.3793C11.3423 4.90909 12.1456 5.05185 12.7891 5.33736C13.4325 5.62287 13.9162 6.01918 14.2401 6.52628C14.5639 7.02912 14.7259 7.60866 14.7259 8.26491C14.7259 8.77628 14.6236 9.22585 14.419 9.61364C14.2145 9.99716 13.9332 10.3125 13.5753 10.5597C13.2216 10.8026 12.8168 10.9751 12.3608 11.0774V11.2053C12.8594 11.2266 13.326 11.3672 13.7607 11.6271C14.1996 11.8871 14.5554 12.2514 14.8281 12.7202C15.1009 13.1847 15.2372 13.7386 15.2372 14.3821C15.2372 15.0767 15.0646 15.6967 14.7195 16.2422C14.3786 16.7834 13.8736 17.2116 13.2045 17.527C12.5355 17.8423 11.7109 18 10.7308 18H5.13778ZM7.90554 15.7372H10.1619C10.9332 15.7372 11.4957 15.5902 11.8494 15.2962C12.2031 14.9979 12.38 14.6016 12.38 14.1072C12.38 13.745 12.2926 13.4254 12.1179 13.1484C11.9432 12.8714 11.6939 12.6541 11.37 12.4964C11.0504 12.3388 10.669 12.2599 10.2259 12.2599H7.90554V15.7372ZM7.90554 10.3871H9.95739C10.3366 10.3871 10.6733 10.321 10.9673 10.1889C11.2656 10.0526 11.5 9.8608 11.6705 9.61364C11.8452 9.36648 11.9325 9.07031 11.9325 8.72514C11.9325 8.25213 11.7642 7.87074 11.4276 7.58097C11.0952 7.29119 10.6222 7.14631 10.0085 7.14631H7.90554V10.3871ZM21.4231 18.1918C20.4302 18.1918 19.5716 17.9808 18.8471 17.5589C18.127 17.1328 17.5708 16.5405 17.1788 15.782C16.7868 15.0192 16.5907 14.1349 16.5907 13.1293C16.5907 12.1151 16.7868 11.2287 17.1788 10.4702C17.5708 9.70739 18.127 9.11506 18.8471 8.69318C19.5716 8.26705 20.4302 8.05398 21.4231 8.05398C22.416 8.05398 23.2725 8.26705 23.9927 8.69318C24.7172 9.11506 25.2754 9.70739 25.6674 10.4702C26.0595 11.2287 26.2555 12.1151 26.2555 13.1293C26.2555 14.1349 26.0595 15.0192 25.6674 15.782C25.2754 16.5405 24.7172 17.1328 23.9927 17.5589C23.2725 17.9808 22.416 18.1918 21.4231 18.1918ZM21.4359 16.0824C21.8876 16.0824 22.2647 15.9545 22.5673 15.6989C22.8699 15.4389 23.0978 15.0852 23.2512 14.6378C23.4089 14.1903 23.4877 13.6811 23.4877 13.1101C23.4877 12.5391 23.4089 12.0298 23.2512 11.5824C23.0978 11.1349 22.8699 10.7812 22.5673 10.5213C22.2647 10.2614 21.8876 10.1314 21.4359 10.1314C20.9799 10.1314 20.5964 10.2614 20.2853 10.5213C19.9785 10.7812 19.7463 11.1349 19.5886 11.5824C19.4352 12.0298 19.3585 12.5391 19.3585 13.1101C19.3585 13.6811 19.4352 14.1903 19.5886 14.6378C19.7463 15.0852 19.9785 15.4389 20.2853 15.6989C20.5964 15.9545 20.9799 16.0824 21.4359 16.0824ZM32.4622 18.1918C31.4693 18.1918 30.6106 17.9808 29.8862 17.5589C29.166 17.1328 28.6099 16.5405 28.2179 15.782C27.8258 15.0192 27.6298 14.1349 27.6298 13.1293C27.6298 12.1151 27.8258 11.2287 28.2179 10.4702C28.6099 9.70739 29.166 9.11506 29.8862 8.69318C30.6106 8.26705 31.4693 8.05398 32.4622 8.05398C33.4551 8.05398 34.3116 8.26705 35.0318 8.69318C35.7562 9.11506 36.3145 9.70739 36.7065 10.4702C37.0985 11.2287 37.2946 12.1151 37.2946 13.1293C37.2946 14.1349 37.0985 15.0192 36.7065 15.782C36.3145 16.5405 35.7562 17.1328 35.0318 17.5589C34.3116 17.9808 33.4551 18.1918 32.4622 18.1918ZM32.475 16.0824C32.9267 16.0824 33.3038 15.9545 33.6064 15.6989C33.9089 15.4389 34.1369 15.0852 34.2903 14.6378C34.448 14.1903 34.5268 13.6811 34.5268 13.1101C34.5268 12.5391 34.448 12.0298 34.2903 11.5824C34.1369 11.1349 33.9089 10.7812 33.6064 10.5213C33.3038 10.2614 32.9267 10.1314 32.475 10.1314C32.019 10.1314 31.6355 10.2614 31.3244 10.5213C31.0176 10.7812 30.7853 11.1349 30.6277 11.5824C30.4743 12.0298 30.3975 12.5391 30.3975 13.1101C30.3975 13.6811 30.4743 14.1903 30.6277 14.6378C30.7853 15.0852 31.0176 15.4389 31.3244 15.6989C31.6355 15.9545 32.019 16.0824 32.475 16.0824ZM41.5325 15.1747L41.5389 11.9084H41.9352L45.0801 8.18182H48.2058L43.9806 13.1165H43.3351L41.5325 15.1747ZM39.0652 18V4.90909H41.7882V18H39.0652ZM45.2015 18L42.3123 13.7237L44.1277 11.7997L48.3912 18H45.2015ZM49.5417 18V8.18182H52.1369V9.91406H52.252C52.4565 9.33878 52.7974 8.88494 53.2747 8.55256C53.752 8.22017 54.323 8.05398 54.9877 8.05398C55.661 8.05398 56.2342 8.2223 56.7072 8.55895C57.1802 8.89133 57.4956 9.34304 57.6532 9.91406H57.7555C57.9558 9.35156 58.318 8.90199 58.8422 8.56534C59.3706 8.22443 59.9949 8.05398 60.715 8.05398C61.6312 8.05398 62.3748 8.34588 62.9458 8.92969C63.5211 9.50923 63.8088 10.3317 63.8088 11.397V18H61.0922V11.9339C61.0922 11.3885 60.9473 10.9794 60.6575 10.7067C60.3677 10.4339 60.0055 10.2976 59.5708 10.2976C59.0765 10.2976 58.6909 10.4553 58.4139 10.7706C58.1369 11.0817 57.9984 11.4929 57.9984 12.0043V18H55.3585V11.8764C55.3585 11.3949 55.22 11.0114 54.943 10.7259C54.6703 10.4403 54.3102 10.2976 53.8627 10.2976C53.5602 10.2976 53.2875 10.3743 53.0446 10.5277C52.8059 10.6768 52.6163 10.8878 52.4757 11.1605C52.335 11.429 52.2647 11.7443 52.2647 12.1065V18H49.5417ZM68.7594 18.1854C68.133 18.1854 67.5748 18.0767 67.0847 17.8594C66.5946 17.6378 66.2069 17.3118 65.9213 16.8814C65.6401 16.4467 65.4995 15.9055 65.4995 15.2578C65.4995 14.7124 65.5996 14.2543 65.7999 13.8835C66.0002 13.5128 66.2729 13.2145 66.6181 12.9886C66.9632 12.7628 67.3553 12.5923 67.7942 12.4773C68.2374 12.3622 68.7019 12.2812 69.1877 12.2344C69.7587 12.1747 70.2189 12.1193 70.5684 12.0682C70.9178 12.0128 71.1713 11.9318 71.329 11.8253C71.4867 11.7187 71.5655 11.5611 71.5655 11.3523V11.3139C71.5655 10.9091 71.4377 10.5959 71.182 10.3743C70.9306 10.1527 70.5726 10.0419 70.1081 10.0419C69.6181 10.0419 69.2282 10.1506 68.9384 10.3679C68.6486 10.581 68.4569 10.8494 68.3631 11.1733L65.8446 10.9688C65.9725 10.3722 66.2239 9.85653 66.5989 9.42188C66.9739 8.98295 67.4576 8.64631 68.0499 8.41193C68.6465 8.1733 69.3368 8.05398 70.1209 8.05398C70.6664 8.05398 71.1884 8.1179 71.687 8.24574C72.1898 8.37358 72.6351 8.57173 73.0229 8.8402C73.415 9.10866 73.7239 9.45384 73.9498 9.87571C74.1756 10.2933 74.2885 10.794 74.2885 11.3778V18H71.7061V16.6385H71.6294C71.4718 16.9453 71.2608 17.2159 70.9966 17.4503C70.7324 17.6804 70.415 17.8615 70.0442 17.9936C69.6735 18.1214 69.2452 18.1854 68.7594 18.1854ZM69.5392 16.3061C69.9398 16.3061 70.2935 16.2273 70.6003 16.0696C70.9071 15.9077 71.1479 15.6903 71.3226 15.4176C71.4973 15.1449 71.5847 14.8359 71.5847 14.4908V13.4489C71.4995 13.5043 71.3823 13.5554 71.2331 13.6023C71.0882 13.6449 70.9242 13.6854 70.7409 13.7237C70.5577 13.7578 70.3745 13.7898 70.1912 13.8196C70.008 13.8452 69.8418 13.8686 69.6926 13.8899C69.373 13.9368 69.0939 14.0114 68.8553 14.1136C68.6167 14.2159 68.4313 14.3544 68.2992 14.5291C68.1671 14.6996 68.101 14.9126 68.101 15.1683C68.101 15.5391 68.2353 15.8224 68.5037 16.0185C68.7765 16.2102 69.1216 16.3061 69.5392 16.3061ZM79.1241 12.3239V18H76.4011V8.18182H78.9963V9.91406H79.1113C79.3287 9.34304 79.693 8.89133 80.2044 8.55895C80.7157 8.2223 81.3358 8.05398 82.0645 8.05398C82.7463 8.05398 83.3407 8.20312 83.8478 8.50142C84.3549 8.79972 84.7491 9.22585 85.0304 9.77983C85.3116 10.3295 85.4522 10.9858 85.4522 11.7486V18H82.7292V12.2344C82.7335 11.6335 82.5801 11.1648 82.269 10.8281C81.9579 10.4872 81.5297 10.3168 80.9842 10.3168C80.6177 10.3168 80.2939 10.3956 80.0126 10.5533C79.7356 10.7109 79.5183 10.9411 79.3606 11.2436C79.2072 11.5419 79.1284 11.902 79.1241 12.3239Z" fill="black"/>
</svg>
