<svg width="26" height="18" viewBox="0 0 26 18" fill="none" xmlns="http://www.w3.org/2000/svg">
<g clip-path="url(#clip0_522_4)">
<path d="M11.499 0H1.25C0.559644 0 0 0.55942 0 1.2495C0 1.93958 0.559644 2.499 1.25 2.499H11.499C12.1894 2.499 12.749 1.93958 12.749 1.2495C12.749 0.55942 12.1894 0 11.499 0Z" fill="black"/>
<path d="M24.317 7.75H1.25C0.559644 7.75 0 8.30942 0 8.9995C0 9.68958 0.559644 10.249 1.25 10.249H24.317C25.0074 10.249 25.567 9.68958 25.567 8.9995C25.567 8.30942 25.0074 7.75 24.317 7.75Z" fill="black"/>
<path d="M16.722 15.501H1.25C0.559644 15.501 0 16.0604 0 16.7505C0 17.4406 0.559644 18 1.25 18H16.722C17.4124 18 17.972 17.4406 17.972 16.7505C17.972 16.0604 17.4124 15.501 16.722 15.501Z" fill="black"/>
</g>
<defs>
<clipPath id="clip0_522_4">
<rect width="25.567" height="18" fill="white"/>
</clipPath>
</defs>
</svg>
